# xmcd
# 
# Track frame offsets:
#     150
#     15972
#     31516
#     46770
#     66500
#     80501
#     99242
#     109860
#     125758
#     147951
#     161854
#     179832
#     194133
#     209193
#     228156
#     246745
#     272961
#     289653
#     304462
# 
# Disc length: 4238
# 
# Revision: 1
# Processed by: cddbd v1.5.2PL0 Copyright (c) Steve Scherf et al.
# Submitted via: fre:ac v1.0.31
# 
DISCID=28108c13
DTITLE=Ronnie Lane - Ain't No One Like Ronnie Lane CD1
DYEAR=1974
DGENRE=Acoustic
TTITLE0=Done this one before
TTITLE1=What went down that night with you
TTITLE2=Lovely
TTITLE3=Ain't no lady
TTITLE4=Don't try to change my mind
TTITLE5=Well Well hello
TTITLE6=You're so right
TTITLE7=One step
TTITLE8=Lad's go money
TTITLE9=Cat melody (Rat's tails)
TTITLE10=Only you
TTITLE11=Three cool cats
TTITLE12=Around the world
TTITLE13=Last minute
TTITLE14=Careless love
TTITLE15=Bye and Bye (Gonna see the King)
TTITLE16=The poacher
TTITLE17=Roll on babe
TTITLE18=Tell everone
EXTD=
EXTT0=
EXTT1=
EXTT2=
EXTT3=
EXTT4=
EXTT5=
EXTT6=
EXTT7=
EXTT8=
EXTT9=
EXTT10=
EXTT11=
EXTT12=
EXTT13=
EXTT14=
EXTT15=
EXTT16=
EXTT17=
EXTT18=
PLAYORDER=
